<?xml version="1.0" encoding="UTF-8"?>
<svg width="25px" height="25px" viewBox="0 0 25 25" version="1.1" xmlns="http://www.w3.org/2000/svg">
    <title>linkedin-logo</title>
    <g id="Page-1" stroke="none" stroke-width="1" fill="none">
        <g id="VGW-Co---Version-1---Rest-Of-The-World---Desktop" transform="translate(-226.000000, -3651.000000)" fill="black" >
            <g id="Footer" transform="translate(0.000000, 3342.000000)">
                <g id="linkedin-logo" transform="translate(226.000000, 309.000000)">
                    <path d="M22.5,0 L2.5,0 C1.125,0 0,1.125 0,2.5 L0,22.5 C0,23.875 1.125,25 2.5,25 L22.5,25 C23.875,25 25,23.875 25,22.5 L25,2.5 C25,1.125 23.875,0 22.5,0 Z M7.5,21.25 L3.75,21.25 L3.75,10 L7.5,10 L7.5,21.25 Z M5.625,7.875 C4.375,7.875 3.375,6.875 3.375,5.625 C3.375,4.375 4.375,3.375 5.625,3.375 C6.875,3.375 7.875,4.375 7.875,5.625 C7.875,6.875 6.875,7.875 5.625,7.875 Z M21.25,21.25 L17.5,21.25 L17.5,14.625 C17.5,13.625049 16.625,12.75 15.625,12.75 C14.625,12.75 13.75,13.625049 13.75,14.625 L13.75,21.25 L10,21.25 L10,10 L13.75,10 L13.75,11.5 C14.375,10.5 15.75,9.75 16.875,9.75 C19.25,9.75 21.25,11.75 21.25,14.125 L21.25,21.25 Z" id="Shape"></path>
                </g>
            </g>
        </g>
    </g>
</svg>