<svg width="568" height="138" viewBox="0 0 568 138" fill="none" xmlns="http://www.w3.org/2000/svg">
    <path d="M390.515 0.148438C374.918 0.148438 362.738 12.2545 362.738 27.7028C362.738 43.5224 374.918 55.9256 390.515 55.9256C406.038 55.9256 418.218 43.5224 418.218 27.7028C418.218 12.2545 406.038 0.148438 390.515 0.148438ZM404.181 31.9362C402.473 35.2784 399.353 35.2784 397.497 35.2784C395.64 35.2784 393.932 34.61 392.595 33.5702C392.521 33.4959 392.372 33.4216 392.298 33.4216C392.001 33.4216 391.778 33.6445 391.778 33.9415C391.778 34.0158 391.778 34.0158 391.778 34.0158C392.372 37.5808 393.709 41.8885 396.383 43.4482C396.457 43.5224 396.531 43.5967 396.531 43.7453C396.531 43.9681 396.383 44.1166 396.16 44.1166H390.515H384.871C384.722 44.1166 384.499 43.9681 384.499 43.7453C384.499 43.5967 384.574 43.5224 384.722 43.4482C387.47 41.8142 388.733 37.5065 389.327 33.9415C389.327 33.6445 389.104 33.4216 388.807 33.4216C388.658 33.4216 388.51 33.4959 388.436 33.5702C387.173 34.61 385.465 35.2041 383.608 35.2041C381.751 35.2041 378.558 35.2041 376.924 31.862C375.216 28.5198 375.735 25.1033 378.632 21.7612C381.157 18.9389 385.762 15.8938 389.104 12.5516C389.475 12.1803 389.995 11.8832 390.515 11.8832C391.109 11.8832 391.629 12.106 391.926 12.5516C395.269 15.8195 399.873 18.8646 402.399 21.7612C405.295 25.1776 405.815 28.5198 404.181 31.9362Z" fill="white"/>
    <path d="M192.435 26.0665C194.886 23.467 196.223 19.902 196.223 15.8914C196.223 6.83042 189.464 0.740234 179.363 0.740234H160.276V21.3875H154.705V32.3052H160.276V45.3768V47.8278V54.9577H167.406H171.713H179.809C190.801 54.9577 198.154 48.2734 198.154 38.3954C198.154 33.2707 196.074 28.8145 192.435 26.0665ZM172.605 12.1779H179.289C182.185 12.1779 183.745 13.8119 183.745 16.6341C183.745 19.5307 182.111 21.3132 179.363 21.3132H172.53V12.1779H172.605ZM180.18 43.6686H172.679V32.3795H180.18C183.671 32.3795 185.676 34.5333 185.676 38.0241C185.676 41.6633 183.745 43.6686 180.18 43.6686Z" fill="white"/>
    <path d="M72.7857 43.6705V0.816406H60.531V55.0339H94.6212V43.6705H72.7857Z" fill="white"/>
    <path d="M122.101 0C106.504 0 94.3235 12.1061 94.3235 27.5544C94.3235 43.374 106.504 55.7772 122.101 55.7772C137.623 55.7772 149.804 43.374 149.804 27.5544C149.804 12.1061 137.623 0 122.101 0ZM122.101 44.191C113.485 44.191 106.801 36.9125 106.801 27.6286C106.801 18.7162 113.56 11.6605 122.101 11.6605C130.642 11.6605 137.4 18.6419 137.4 27.6286C137.4 36.8382 130.642 44.191 122.101 44.191Z" fill="white"/>
    <path d="M232.615 2.5989L231.947 0.816406H220.955L201.496 55.0339H214.27L219.098 40.9968H233.655L238.557 55.0339H251.405L232.615 2.5989ZM222.811 29.9305L226.451 19.6811L230.015 29.9305H222.811Z" fill="white"/>
    <path d="M271.162 43.6705V0.816406H258.907V55.0339H292.997V43.6705H271.162Z" fill="white"/>
    <path d="M38.8435 25.1054V34.2406L38.9178 36.4688V39.6624C37.3581 41.0735 33.2732 44.1929 27.7772 44.1929C18.939 44.1929 12.4775 37.2857 12.4775 27.7791C12.4775 18.1239 18.7905 11.6624 28.1485 11.6624C35.2042 11.6624 40.1061 15.7473 40.1061 15.7473L42.4085 17.7526L48.7958 8.24593L47.1618 6.68625C46.4191 6.01782 39.8833 0.0761719 27.5544 0.0761719C11.809 0.0761719 0 12.0337 0 27.9276C0 43.8958 11.4377 55.9276 26.6631 55.9276C32.0106 55.9276 36.1698 54.2937 38.992 52.6597V55.1107H50.4297V25.1054H38.8435Z" fill="white"/>
    <path d="M451.268 26.7368L467.162 0.816406H453.273L440.944 21.3151H437.974V0.816406H425.719V55.0339H437.974V32.6042H440.944L453.942 55.0339H467.979L451.268 26.7368Z" fill="white"/>
    <path d="M487.14 43.6705V33.3469H504.594V22.0578H487.14V12.1798H508.605V0.816406H474.886V55.0339H509.793V43.6705H487.14Z" fill="white"/>
    <path d="M340.382 0.816406H320.7V12.0313H320.626V25.6228H315.13V36.5406H320.626V54.9596H332.955V36.9862H340.308C350.854 36.9862 358.281 29.4848 358.281 18.7899C358.355 8.24346 351.003 0.816406 340.382 0.816406ZM333.029 12.1798H339.416C343.65 12.1798 345.878 14.4822 345.878 18.7899C345.878 23.0976 343.501 25.6228 339.342 25.6228H333.029V12.1798Z" fill="white"/>
    <path d="M555.173 43.6705C554.578 43.6705 554.281 43.6705 554.133 43.5963C554.133 43.5963 554.133 43.5963 554.133 43.522L548.191 31.713C551.979 29.262 555.247 24.4344 555.247 17.8244C555.247 7.6493 548.34 0.816406 537.942 0.816406H518.483V54.9596H530.812V35.575H534.451C536.234 35.575 536.234 35.575 536.902 36.6891L543.512 49.835C545.666 54.2169 548.191 54.9596 552.722 54.9596H558.812V43.6705H555.173ZM530.812 12.1798H537.199C540.838 12.1798 542.695 14.1851 542.695 18.1214C542.695 20.9437 541.73 24.2859 537.051 24.2859H530.738L530.812 12.1798Z" fill="white"/>
    <path d="M560.52 0.820312V1.78583H558.886V6.24206H557.772V1.78583H556.138V0.820312H560.52ZM564.307 3.79113C564.307 3.86541 564.382 3.93968 564.382 4.01395C564.382 4.08822 564.456 4.16249 564.456 4.23676C564.456 4.16249 564.53 4.08822 564.53 4.01395C564.53 3.93968 564.605 3.86541 564.605 3.79113L566.164 1.04312C566.238 0.968853 566.239 0.894585 566.313 0.894585C566.387 0.894585 566.461 0.894585 566.536 0.894585H567.501V6.31633H566.536V2.97416L566.61 2.30572L564.976 5.35082C564.902 5.49936 564.753 5.57363 564.605 5.57363H564.456C564.233 5.57363 564.159 5.49936 564.085 5.35082L562.376 2.30572L562.451 2.97416V6.31633H561.485V0.894585H562.451C562.525 0.894585 562.599 0.894585 562.673 0.894585C562.748 0.894585 562.748 0.968853 562.822 1.04312L564.307 3.79113Z" fill="white"/>
    <path d="M91.8905 127L114.57 76.6H123.786L146.538 127H136.746L117.234 81.568H120.978L101.538 127H91.8905ZM102.33 115.336L104.85 107.992H132.066L134.586 115.336H102.33ZM175.573 127.72C171.733 127.72 168.157 127.096 164.845 125.848C161.581 124.552 158.725 122.752 156.277 120.448C153.877 118.096 152.005 115.336 150.661 112.168C149.317 109 148.645 105.544 148.645 101.8C148.645 98.056 149.317 94.6 150.661 91.432C152.005 88.264 153.901 85.528 156.349 83.224C158.797 80.872 161.653 79.072 164.917 77.824C168.181 76.528 171.757 75.88 175.645 75.88C179.773 75.88 183.541 76.6 186.949 78.04C190.357 79.432 193.237 81.52 195.589 84.304L189.541 89.992C187.717 88.024 185.677 86.56 183.421 85.6C181.165 84.592 178.717 84.088 176.077 84.088C173.437 84.088 171.013 84.52 168.805 85.384C166.645 86.248 164.749 87.472 163.117 89.056C161.533 90.64 160.285 92.512 159.373 94.672C158.509 96.832 158.077 99.208 158.077 101.8C158.077 104.392 158.509 106.768 159.373 108.928C160.285 111.088 161.533 112.96 163.117 114.544C164.749 116.128 166.645 117.352 168.805 118.216C171.013 119.08 173.437 119.512 176.077 119.512C178.717 119.512 181.165 119.032 183.421 118.072C185.677 117.064 187.717 115.552 189.541 113.536L195.589 119.296C193.237 122.032 190.357 124.12 186.949 125.56C183.541 127 179.749 127.72 175.573 127.72ZM196.375 127L219.055 76.6H228.271L251.023 127H241.231L221.719 81.568H225.463L206.023 127H196.375ZM206.815 115.336L209.335 107.992H236.551L239.071 115.336H206.815ZM257.433 127V76.6H279.465C284.937 76.6 289.737 77.656 293.865 79.768C297.993 81.88 301.209 84.808 303.513 88.552C305.817 92.296 306.969 96.712 306.969 101.8C306.969 106.84 305.817 111.256 303.513 115.048C301.209 118.792 297.993 121.72 293.865 123.832C289.737 125.944 284.937 127 279.465 127H257.433ZM266.793 119.08H279.033C282.825 119.08 286.089 118.36 288.825 116.92C291.609 115.48 293.745 113.464 295.233 110.872C296.769 108.28 297.537 105.256 297.537 101.8C297.537 98.296 296.769 95.272 295.233 92.728C293.745 90.136 291.609 88.12 288.825 86.68C286.089 85.24 282.825 84.52 279.033 84.52H266.793V119.08ZM325.557 97.552H350.613V105.256H325.557V97.552ZM326.277 119.152H354.717V127H316.917V76.6H353.709V84.448H326.277V119.152ZM365.151 127V76.6H372.855L394.887 113.392H390.855L412.527 76.6H420.231L420.303 127H411.447L411.375 90.496H413.247L394.815 121.24H390.639L371.919 90.496H374.079V127H365.151ZM446.301 127V107.056L448.389 112.816L426.501 76.6H436.509L454.077 105.76H448.461L466.173 76.6H475.389L453.501 112.816L455.661 107.056V127H446.301Z" fill="#ED1B25"/>
</svg>
