<svg width="20" height="20" viewBox="0 0 20 20" fill="none" xmlns="http://www.w3.org/2000/svg">
<g id="Copy Link" clip-path="url(#clip0_67_3485)">
<path id="Vector" d="M12.4282 14.4557L8.32912 18.5548C6.41781 20.4661 3.32886 20.4818 1.39844 18.6018C-0.481676 16.6712 -0.465985 13.5822 1.44532 11.6709L5.30226 7.81395C5.57052 7.54569 5.86199 7.3147 6.17019 7.12119C7.39054 6.35473 8.87335 6.17367 10.2177 6.57839C10.5436 6.67634 10.8614 6.8088 11.1652 6.97569C11.5468 7.18519 11.9066 7.44898 12.2331 7.76707C12.2559 7.79037 12.2783 7.81386 12.3004 7.83753C12.7634 8.33174 12.7484 9.10457 12.264 9.57786L12.1802 9.65983C11.6809 10.1478 10.8791 10.1275 10.4024 9.61761C10.3992 9.61419 10.396 9.61086 10.3928 9.60743C10.4089 9.62265 10.4248 9.63815 10.4406 9.65394L10.3463 9.5596C10.3621 9.57539 10.3776 9.59136 10.3928 9.60743C10.0542 9.28725 9.6361 9.07966 9.18383 9.00339C9.05536 8.98171 8.92422 8.97078 8.79137 8.97078C8.74002 8.97078 8.68877 8.97239 8.63789 8.97572C8.45988 8.98723 8.28566 9.01861 8.11801 9.06901C7.75323 9.17837 7.41906 9.37702 7.14215 9.65394L3.28521 13.5109C2.88106 13.915 2.64351 14.4413 2.607 15.0066C2.60367 15.0575 2.60205 15.1087 2.60205 15.1601C2.60205 15.7608 2.82761 16.3268 3.2388 16.7615C3.22264 16.7463 3.20676 16.7308 3.19097 16.715L3.2853 16.8093C3.26961 16.7936 3.25402 16.7777 3.2388 16.7615C3.67339 17.1726 4.23939 17.398 4.84001 17.3981C4.89145 17.3981 4.94261 17.3964 4.99349 17.3931C5.55883 17.3566 6.08508 17.119 6.48923 16.7149L9.03605 14.1681C9.03957 14.1695 9.04319 14.1709 9.0467 14.1724C9.7485 14.4491 10.4883 14.5871 11.2455 14.5823C11.646 14.5798 12.0413 14.5374 12.4281 14.4558L12.4282 14.4557Z" fill="white"/>
<path id="Vector_2" d="M18.5545 8.32922L14.6976 12.1862C14.4293 12.4544 14.1378 12.6854 13.8296 12.8789C12.6092 13.6454 11.1264 13.8263 9.78226 13.4217C9.45627 13.3237 9.13856 13.1913 8.83464 13.0243C8.45303 12.8148 8.09338 12.551 7.76692 12.233C7.74419 12.2097 7.72175 12.1862 7.69969 12.1626C7.23667 11.6684 7.2516 10.8953 7.73601 10.4221L7.8197 10.3403C8.31904 9.85234 9.12097 9.87251 9.59768 10.3825C9.60082 10.3859 9.60405 10.3892 9.60728 10.3927C9.59112 10.3775 9.57524 10.362 9.55945 10.3462L9.65378 10.4405C9.63809 10.4248 9.6225 10.4088 9.60728 10.3927C9.94582 10.7129 10.364 10.9204 10.8162 10.9966C10.9445 11.0183 11.0756 11.0293 11.2085 11.0293C11.2599 11.0293 11.3111 11.0277 11.362 11.0244C11.54 11.0128 11.7143 10.9814 11.8818 10.9311C12.2466 10.8217 12.5808 10.6231 12.8577 10.3463L16.7147 6.48933C17.1188 6.08517 17.3564 5.55883 17.3929 4.99358C17.3962 4.94271 17.3978 4.89155 17.3978 4.8401C17.3978 4.23939 17.1723 3.67339 16.7613 3.2388C16.7775 3.25402 16.7934 3.26952 16.8092 3.2853L16.7148 3.19097C16.7306 3.20676 16.7462 3.22273 16.7613 3.2388C16.3267 2.82771 15.7607 2.60215 15.1599 2.60215C15.1086 2.60215 15.0573 2.60376 15.0065 2.60709C14.4412 2.64351 13.915 2.88106 13.5107 3.2853L10.9639 5.83213C10.9604 5.8307 10.9568 5.82927 10.9533 5.82785C10.2515 5.55103 9.51162 5.41314 8.75448 5.4178C8.35375 5.42027 7.95863 5.46269 7.57178 5.54437L11.6708 1.44532C13.5821 -0.465985 16.6712 -0.481676 18.6017 1.39844C20.4817 3.32886 20.466 6.41781 18.5547 8.32912L18.5545 8.32922Z" fill="white"/>
</g>
<defs>
<clipPath id="clip0_67_3485">
<rect width="20" height="20" fill="white"/>
</clipPath>
</defs>
</svg>
