<svg xmlns="http://www.w3.org/2000/svg" width="20" height="20" viewBox="0 0 20 20" fill="none">
  <path d="M17.9442 6.04822C17.9569 6.22588 17.9569 6.40357 17.9569 6.58123C17.9569 12 13.8326 18.2437 6.29444 18.2437C3.97209 18.2437 1.81473 17.5711 0 16.4036C0.329962 16.4417 0.64719 16.4544 0.989848 16.4544C2.90607 16.4544 4.67006 15.8072 6.0787 14.7031C4.27666 14.665 2.7665 13.4848 2.24618 11.8604C2.50001 11.8985 2.7538 11.9239 3.02032 11.9239C3.38833 11.9239 3.75638 11.8731 4.099 11.7843C2.22083 11.4036 0.812152 9.75382 0.812152 7.76143V7.71069C1.35782 8.01526 1.99239 8.20561 2.66493 8.23096C1.56087 7.4949 0.837542 6.23857 0.837542 4.81724C0.837542 4.05583 1.04055 3.35786 1.3959 2.74871C3.41369 5.23603 6.4467 6.86037 9.8477 7.03807C9.78426 6.7335 9.74617 6.41627 9.74617 6.099C9.74617 3.84009 11.5736 2 13.8452 2C15.0254 2 16.0914 2.49492 16.8401 3.29442C17.7665 3.11676 18.6548 2.7741 19.4416 2.30457C19.137 3.25637 18.4898 4.05587 17.6396 4.56345C18.4645 4.47466 19.264 4.24618 20 3.92895C19.4417 4.7411 18.7437 5.46443 17.9442 6.04822Z" fill="white"/>
</svg>
